<?xml version="1.0" standalone="no"?>
<!DOCTYPE svg PUBLIC "-//W3C//DTD SVG 20010904//EN"
 "http://www.w3.org/TR/2001/REC-SVG-20010904/DTD/svg10.dtd">
<svg version="1.0" xmlns="http://www.w3.org/2000/svg"
 width="185.000000pt" height="185.000000pt" viewBox="0 0 185.000000 185.000000"
 preserveAspectRatio="xMidYMid meet">
<metadata>
Created by potrace 1.14, written by Peter Selinger 2001-2017
</metadata>
<g transform="translate(0.000000,185.000000) scale(0.100000,-0.100000)"
fill="#000000" stroke="none">
<path d="M673 1273 c-150 -319 -193 -412 -193 -418 0 -3 38 -5 83 -5 l84 0 43
93 c93 197 152 324 172 367 11 25 25 53 30 63 8 16 1 17 -77 17 l-86 0 -56
-117z"/>
<path d="M939 1383 c-1 -4 -2 -126 -3 -270 l-1 -263 95 0 95 0 -1 267 -1 268
-92 3 c-50 1 -92 -1 -92 -5z"/>
<path d="M1159 1363 c-2 -73 1 -396 4 -399 4 -4 197 406 197 419 0 4 -45 7
-100 7 l-100 0 -1 -27z"/>
<path d="M867 1228 c-14 -29 -44 -93 -67 -143 -24 -49 -58 -123 -76 -162 l-33
-73 105 0 104 0 0 215 c0 118 -2 215 -4 215 -3 0 -16 -24 -29 -52z"/>
<path d="M0 690 c0 -22 4 -40 9 -40 5 0 7 10 4 23 -6 21 -6 21 15 -3 18 -22
21 -23 27 -7 8 19 27 24 22 6 -1 -6 3 -13 8 -15 6 -2 10 12 10 31 0 19 -4 35
-8 35 -4 0 -11 0 -15 0 -5 0 -14 -10 -20 -22 l-11 -23 -6 22 c-4 12 -13 24
-21 27 -11 4 -14 -4 -14 -34z"/>
<path d="M132 721 c-4 -4 -6 -13 -6 -21 1 -8 2 -23 3 -32 1 -13 10 -18 30 -18
17 0 33 5 36 10 4 6 3 10 -2 9 -4 -1 -19 -1 -33 1 -23 1 -23 2 -5 9 11 5 23 7
28 4 4 -2 7 0 7 6 0 5 -10 12 -22 14 l-23 4 23 2 c12 0 22 5 22 9 0 9 -46 11
-58 3z"/>
<path d="M226 721 c-2 -3 -3 -19 -2 -36 2 -25 7 -31 30 -33 16 -2 33 1 38 6
15 15 -3 42 -31 43 -26 1 -26 1 4 9 17 4 28 9 25 10 -13 5 -61 6 -64 1z m46
-53 c-9 -9 -15 -9 -24 0 -9 9 -7 12 12 12 19 0 21 -3 12 -12z"/>
<path d="M328 693 c-2 -18 -2 -36 1 -38 9 -10 61 -5 61 6 0 6 -9 8 -20 4 -11
-4 -20 -2 -20 4 0 6 9 11 20 11 11 0 20 5 20 10 0 6 -9 10 -21 10 -11 0 -18 4
-14 10 3 5 12 7 20 3 8 -3 15 0 15 5 0 6 -13 10 -29 10 -25 -1 -30 -5 -33 -35z"/>
<path d="M432 707 c0 -12 -3 -30 -7 -41 -6 -14 -5 -18 6 -14 8 3 16 16 19 29
6 31 35 32 35 2 0 -13 4 -23 10 -23 5 0 10 14 10 31 0 29 -3 32 -37 35 -33 3
-38 1 -36 -19z"/>
<path d="M537 710 c-11 -41 3 -61 40 -58 28 2 33 6 31 23 -2 14 -12 21 -31 23
-15 2 -25 7 -22 12 3 5 1 11 -4 14 -5 3 -11 -3 -14 -14z m53 -34 c0 -2 -7 -6
-15 -10 -8 -3 -15 -1 -15 4 0 6 7 10 15 10 8 0 15 -2 15 -4z"/>
<path d="M638 718 c-7 -19 4 -68 14 -68 6 0 8 6 5 14 -3 8 2 16 13 19 12 3 20
-2 23 -15 7 -27 24 -15 21 14 -1 13 -3 29 -3 36 -1 7 -6 10 -11 7 -6 -4 -8
-11 -4 -17 4 -6 -3 -8 -17 -6 -13 2 -23 9 -21 16 3 15 -15 16 -20 0z"/>
<path d="M764 712 c-4 -9 -8 -19 -8 -22 -1 -3 -5 -11 -10 -18 -12 -19 1 -27
19 -12 12 10 18 10 30 0 22 -18 27 -8 14 28 -12 36 -34 48 -45 24z"/>
<path d="M855 716 c-13 -9 -15 -15 -6 -20 6 -4 9 -16 6 -27 -8 -23 2 -24 27
-2 17 15 18 15 18 0 0 -10 4 -17 9 -17 5 0 8 16 7 37 -1 28 -6 37 -22 39 -12
2 -29 -3 -39 -10z m40 -16 c-3 -5 -10 -10 -16 -10 -5 0 -9 5 -9 10 0 6 7 10
16 10 8 0 12 -4 9 -10z"/>
<path d="M1009 723 c0 -4 -2 -20 -4 -35 -4 -31 12 -48 21 -23 6 14 8 14 25 -1
23 -21 38 -11 16 11 -17 16 -13 45 6 45 6 0 7 3 4 6 -4 4 -18 -1 -33 -11 -15
-9 -24 -12 -20 -7 3 6 2 13 -4 17 -5 3 -10 3 -11 -2z"/>
<path d="M1116 714 c-19 -18 -19 -20 -6 -45 13 -23 55 -25 76 -4 18 17 17 25
-3 48 -20 21 -47 22 -67 1z m54 -24 c0 -26 -19 -35 -37 -18 -13 13 -12 17 2
32 19 19 35 13 35 -14z"/>
<path d="M1224 688 c0 -21 5 -37 11 -35 5 2 9 13 7 23 -3 16 0 15 14 -5 l17
-24 18 24 c10 14 17 17 16 9 -1 -8 2 -16 8 -17 9 -3 10 6 6 52 -2 24 -21 17
-32 -12 -10 -27 -11 -27 -25 -9 -8 11 -14 23 -14 26 0 4 -6 7 -13 7 -9 0 -14
-13 -13 -39z"/>
<path d="M1359 719 c-5 -34 -2 -59 6 -59 6 0 10 10 10 22 0 14 7 24 18 26 13
3 17 -3 17 -27 0 -17 5 -31 10 -31 6 0 10 17 10 38 0 36 -1 38 -35 39 -19 0
-36 -3 -36 -8z"/>
<path d="M1476 699 c-21 -43 -20 -52 5 -39 15 9 24 8 35 -1 22 -18 27 -4 10
29 -23 44 -32 46 -50 11z"/>
<path d="M1569 721 c-5 -40 -3 -61 6 -60 6 1 9 5 8 9 -1 4 7 10 17 13 15 4 20
0 20 -14 0 -10 5 -19 10 -19 6 0 10 15 10 34 0 19 -4 38 -10 41 -5 3 -10 -1
-10 -9 0 -9 -9 -16 -21 -16 -11 0 -18 4 -14 9 3 5 1 12 -5 16 -5 3 -11 1 -11
-4z"/>
<path d="M1680 730 c-1 -3 -3 -22 -5 -42 -4 -46 14 -50 44 -10 l21 27 -4 -27
c-3 -16 0 -28 5 -28 10 0 10 0 13 42 4 36 -18 43 -41 12 l-18 -25 -6 28 c-4
15 -8 26 -9 23z"/>
<path d="M1789 719 c-8 -4 -8 -13 -1 -25 5 -11 7 -25 5 -31 -7 -18 14 -16 21
2 3 8 10 15 16 15 6 0 9 -4 5 -9 -3 -5 -1 -12 5 -16 6 -4 10 9 10 32 0 35 -3
39 -25 39 -14 0 -30 -3 -36 -7z m51 -13 c0 -9 -30 -14 -35 -6 -4 6 3 10 14 10
12 0 21 -2 21 -4z"/>
<path d="M1345 599 c-4 -6 -4 -13 -1 -16 3 -4 6 0 6 8 0 12 2 12 10 -1 5 -9 5
-19 -2 -27 -7 -9 -7 -13 1 -13 6 0 11 5 11 11 0 5 4 8 9 4 5 -3 13 0 17 6 4 7
3 9 -4 5 -6 -3 -13 3 -17 14 -7 22 -20 26 -30 9z"/>
<path d="M566 578 c-7 -4 -12 -22 -11 -42 1 -22 -3 -37 -11 -40 -21 -8 -17
-26 6 -26 23 0 41 29 35 58 -4 24 15 44 32 34 6 -4 13 -25 15 -46 2 -22 9 -41
16 -44 10 -3 12 10 10 54 l-3 59 -38 0 c-21 0 -44 -3 -51 -7z"/>
<path d="M723 583 c-8 -3 -13 -24 -13 -58 l0 -54 51 1 c33 0 49 4 46 11 -2 7
-18 12 -35 11 -20 0 -32 5 -32 13 0 8 12 13 30 13 17 0 30 5 30 10 0 10 -13
14 -42 11 -10 -1 -18 3 -18 8 0 6 13 11 29 11 26 0 55 18 34 21 -31 4 -70 5
-80 2z"/>
<path d="M863 581 c-13 -9 -10 -104 3 -108 6 -2 14 6 17 17 3 12 11 20 19 19
7 -2 23 1 36 5 24 8 31 49 10 62 -16 10 -73 13 -85 5z m67 -36 c0 -16 -35 -21
-44 -6 -8 12 4 21 26 21 10 0 18 -7 18 -15z"/>
<path d="M1033 580 c-32 -13 -48 -47 -34 -76 19 -42 99 -44 122 -3 14 28 -5
75 -34 83 -27 7 -27 7 -54 -4z m57 -40 c7 -14 6 -23 -6 -34 -19 -20 -29 -20
-48 0 -20 19 -20 23 0 45 18 20 40 15 54 -11z"/>
<path d="M1175 577 c-13 -39 -8 -110 8 -104 6 2 13 13 13 25 2 37 4 38 19 5
17 -39 32 -42 45 -9 13 36 28 40 25 6 -2 -20 2 -30 11 -30 10 0 14 16 14 60 0
33 -4 60 -8 60 -16 0 -40 -25 -44 -44 -5 -31 -24 -29 -38 3 -13 32 -38 48 -45
28z"/>
</g>
</svg>
